<svg width="1440" height="557" viewBox="0 0 1440 557" fill="none" xmlns="http://www.w3.org/2000/svg">
<path d="M1155.06 326.623C1143.71 340.471 1135.87 356.849 1132.18 374.371C1128.5 391.893 1129.09 410.045 1133.91 427.29C1138.73 444.535 1147.62 460.367 1159.85 473.446C1172.08 486.526 1187.28 496.468 1204.16 502.433C1221.04 508.397 1239.11 510.208 1256.84 507.712C1274.57 505.217 1291.44 498.488 1306.02 488.095C1320.6 477.702 1332.46 463.951 1340.61 448.004C1348.75 432.058 1352.93 414.385 1352.8 396.48L1339.2 396.581C1339.31 412.301 1335.64 427.818 1328.49 441.819C1321.34 455.82 1310.93 467.894 1298.12 477.019C1285.32 486.143 1270.51 492.051 1254.95 494.242C1239.38 496.434 1223.51 494.844 1208.69 489.607C1193.87 484.37 1180.52 475.641 1169.79 464.157C1159.05 452.673 1151.24 438.773 1147.01 423.631C1142.78 408.49 1142.26 392.553 1145.5 377.168C1148.73 361.784 1155.62 347.404 1165.58 335.245L1155.06 326.623Z" fill="#F4D561"/>
<path d="M1180.66 346.05C1172.57 355.924 1166.97 367.602 1164.34 380.095C1161.72 392.589 1162.14 405.531 1165.57 417.827C1169.01 430.123 1175.35 441.411 1184.07 450.736C1192.79 460.062 1203.63 467.151 1215.66 471.404C1227.7 475.656 1240.58 476.948 1253.23 475.168C1265.87 473.389 1277.89 468.591 1288.29 461.181C1298.69 453.771 1307.14 443.966 1312.95 432.596C1318.75 421.226 1321.74 408.626 1321.64 395.86L1306.45 395.971C1306.53 406.298 1304.12 416.491 1299.42 425.688C1294.72 434.885 1287.88 442.816 1279.47 448.81C1271.06 454.805 1261.33 458.685 1251.11 460.125C1240.88 461.564 1230.46 460.52 1220.72 457.08C1210.99 453.64 1202.22 447.905 1195.17 440.362C1188.12 432.818 1182.98 423.687 1180.21 413.741C1177.43 403.794 1177.09 393.326 1179.21 383.219C1181.33 373.113 1185.86 363.667 1192.41 355.68L1180.66 346.05Z" fill="#F4D561"/>
<path d="M1204.88 358.256C1199.53 364.777 1195.84 372.488 1194.1 380.739C1192.37 388.989 1192.65 397.536 1194.92 405.655C1197.18 413.775 1201.37 421.23 1207.13 427.388C1212.89 433.547 1220.04 438.228 1227.99 441.037C1235.94 443.845 1244.45 444.698 1252.8 443.523C1261.15 442.348 1269.09 439.179 1275.95 434.286C1282.82 429.392 1288.41 422.918 1292.24 415.409C1296.07 407.901 1298.04 399.579 1297.98 391.149L1285.94 391.237C1285.99 397.735 1284.47 404.148 1281.52 409.934C1278.56 415.721 1274.26 420.711 1268.97 424.482C1263.68 428.254 1257.55 430.695 1251.12 431.601C1244.69 432.507 1238.13 431.849 1232 429.685C1225.88 427.521 1220.36 423.913 1215.92 419.167C1211.49 414.42 1208.26 408.675 1206.51 402.417C1204.76 396.16 1204.55 389.573 1205.89 383.214C1207.22 376.856 1210.07 370.913 1214.19 365.888L1204.88 358.256Z" fill="#F4D561"/>
<circle cx="1260.14" cy="70.3447" r="40.5" fill="#D5805F"/>
<path d="M1223.91 37.6789C1218.97 43.7025 1215.56 50.8265 1213.96 58.4483C1212.36 66.0701 1212.61 73.9656 1214.71 81.4668C1216.8 88.9681 1220.67 95.8546 1225.99 101.544C1231.31 107.233 1237.92 111.558 1245.27 114.152C1252.61 116.747 1260.47 117.534 1268.18 116.449C1275.89 115.363 1283.23 112.436 1289.57 107.916C1295.92 103.395 1301.08 97.4137 1304.62 90.4773C1308.16 83.5409 1309.98 75.8536 1309.92 68.0655L1304 68.109C1304.05 74.947 1302.46 81.6965 1299.35 87.7866C1296.24 93.8768 1291.71 99.1286 1286.14 103.098C1280.57 107.067 1274.13 109.637 1267.36 110.59C1260.59 111.543 1253.68 110.851 1247.24 108.573C1240.79 106.295 1234.99 102.498 1230.32 97.5032C1225.65 92.5079 1222.25 86.4616 1220.41 79.8754C1218.57 73.2893 1218.34 66.3571 1219.75 59.6651C1221.16 52.9732 1224.15 46.7183 1228.49 41.4295L1223.91 37.6789Z" fill="#F4D561"/>
<path d="M1281.38 39.701C1276.86 36.4966 1271.64 34.4278 1266.15 33.6695C1260.66 32.9111 1255.07 33.4856 1249.85 35.3442C1244.63 37.2029 1239.94 40.2911 1236.17 44.3476C1232.39 48.4041 1229.65 53.3097 1228.18 58.6494C1226.7 63.9891 1226.53 69.6059 1227.68 75.0247C1228.84 80.4435 1231.28 85.505 1234.8 89.781C1238.32 94.057 1242.82 97.4218 1247.92 99.5907C1253.02 101.76 1258.56 102.669 1264.09 102.242L1263.58 95.669C1259.11 96.0145 1254.63 95.2789 1250.5 93.5243C1246.38 91.7698 1242.74 89.048 1239.89 85.5891C1237.04 82.1302 1235.06 78.036 1234.13 73.6527C1233.2 69.2694 1233.34 64.7259 1234.53 60.4066C1235.72 56.0872 1237.94 52.1191 1240.99 48.8377C1244.05 45.5564 1247.84 43.0583 1252.07 41.5548C1256.29 40.0513 1260.81 39.5866 1265.25 40.2001C1269.69 40.8135 1273.91 42.487 1277.57 45.079L1281.38 39.701Z" fill="#F4D561"/>
<path d="M1280.99 78.6783C1283.08 75.7308 1284.43 72.3235 1284.93 68.7444C1285.42 65.1653 1285.05 61.5197 1283.83 58.116C1282.62 54.7123 1280.61 51.6505 1277.96 49.1897C1275.32 46.7289 1272.12 44.9414 1268.63 43.9784C1265.15 43.0154 1261.49 42.9052 1257.96 43.6572C1254.42 44.4091 1251.12 46.0011 1248.33 48.2984C1245.54 50.5958 1243.35 53.5309 1241.93 56.8556C1240.52 60.1803 1239.93 63.7968 1240.2 67.3991L1245.35 67.0013C1245.13 64.2251 1245.59 61.4379 1246.68 58.8756C1247.77 56.3133 1249.46 54.0513 1251.61 52.2808C1253.76 50.5102 1256.31 49.2833 1259.03 48.7038C1261.75 48.1243 1264.58 48.2092 1267.26 48.9514C1269.94 49.6936 1272.41 51.0712 1274.45 52.9677C1276.49 54.8642 1278.04 57.2238 1278.97 59.847C1279.91 62.4702 1280.2 65.2798 1279.81 68.0381C1279.43 70.7965 1278.39 73.4225 1276.78 75.694L1280.99 78.6783Z" fill="#F4D561"/>
<circle cx="175.798" cy="328.775" r="97.5" fill="#69B1B0"/>
<circle cx="260.798" cy="378.775" r="28.5" fill="#FF85D2"/>
<path d="M46.3591 386.138C28.6665 355.469 23.8794 319.023 33.0507 284.819C42.2221 250.615 64.6007 221.454 95.2635 203.75C125.926 186.047 162.362 181.252 196.554 190.42C230.747 199.589 259.895 221.969 277.588 252.638L216.313 288.015C207.997 273.601 194.297 263.082 178.227 258.773C162.156 254.464 145.031 256.717 130.62 265.038C116.208 273.358 105.69 287.064 101.379 303.141C97.0689 319.217 99.3188 336.346 107.634 350.761L46.3591 386.138Z" fill="#000A38"/>
</svg>