<svg width="1440" height="1313" viewBox="0 0 1440 1313" fill="none" xmlns="http://www.w3.org/2000/svg">
<rect width="1440" height="1313" fill="#F5F5F5"/>
<path d="M1223.89 115.614C1241.59 146.277 1246.39 182.717 1237.22 216.917C1228.06 251.117 1205.69 280.276 1175.02 297.979C1144.36 315.682 1107.92 320.479 1073.72 311.315C1039.52 302.152 1010.36 279.777 992.658 249.114L1053.93 213.737C1062.25 228.149 1075.96 238.665 1092.03 242.972C1108.11 247.279 1125.23 245.024 1139.65 236.703C1154.06 228.383 1164.57 214.678 1168.88 198.604C1173.19 182.53 1170.93 165.403 1162.61 150.992L1223.89 115.614Z" fill="#FFD885"/>
<path d="M130.613 775.615C115.71 785.54 103.417 798.907 94.7725 814.587C86.1282 830.267 81.3873 847.799 80.9506 865.698C80.5138 883.598 84.3942 901.34 92.2636 917.423C100.133 933.506 111.76 947.457 126.16 958.097C140.561 968.736 157.313 975.752 174.998 978.549C192.683 981.346 210.782 979.843 227.763 974.167C244.745 968.491 260.11 958.809 272.558 945.94C285.007 933.071 294.173 917.393 299.282 900.232L286.245 896.351C281.76 911.418 273.711 925.183 262.781 936.483C251.851 947.782 238.361 956.283 223.451 961.266C208.541 966.25 192.651 967.569 177.123 965.113C161.595 962.657 146.888 956.498 134.244 947.156C121.6 937.814 111.391 925.565 104.482 911.444C97.5728 897.323 94.1658 881.746 94.5492 866.03C94.9326 850.314 99.0952 834.922 106.685 821.155C114.275 807.387 125.068 795.65 138.153 786.937L130.613 775.615Z" fill="#000A38"/>
<path d="M149.132 801.497C138.507 808.574 129.742 818.105 123.578 829.285C117.415 840.465 114.035 852.965 113.723 865.727C113.412 878.49 116.179 891.14 121.789 902.607C127.4 914.074 135.69 924.022 145.958 931.608C156.226 939.194 168.17 944.196 180.779 946.19C193.389 948.185 206.293 947.113 218.401 943.066C230.509 939.019 241.464 932.116 250.34 922.94C259.216 913.764 265.752 902.586 269.395 890.35L254.834 886.015C251.888 895.913 246.601 904.955 239.421 912.378C232.241 919.8 223.38 925.384 213.585 928.658C203.791 931.932 193.353 932.798 183.153 931.185C172.953 929.572 163.291 925.526 154.986 919.389C146.68 913.253 139.974 905.206 135.435 895.93C130.897 886.654 128.659 876.422 128.91 866.098C129.162 855.774 131.897 845.663 136.882 836.619C141.868 827.576 148.958 819.866 157.553 814.142L149.132 801.497Z" fill="#000A38"/>
<path d="M168.415 820.618C161.398 825.291 155.61 831.585 151.539 838.968C147.469 846.351 145.237 854.606 145.031 863.034C144.826 871.462 146.653 879.816 150.358 887.389C154.063 894.961 159.538 901.53 166.318 906.54C173.099 911.55 180.987 914.853 189.314 916.17C197.641 917.487 206.163 916.779 214.158 914.107C222.154 911.434 229.389 906.876 235.25 900.816C241.112 894.756 245.428 887.374 247.833 879.294L236.295 875.859C234.441 882.086 231.114 887.776 226.597 892.446C222.08 897.116 216.504 900.629 210.342 902.689C204.18 904.748 197.612 905.294 191.195 904.279C184.777 903.264 178.698 900.718 173.473 896.857C168.247 892.996 164.028 887.933 161.172 882.097C158.316 876.261 156.908 869.823 157.067 863.328C157.225 856.832 158.946 850.471 162.083 844.781C165.219 839.091 169.68 834.24 175.088 830.638L168.415 820.618Z" fill="#000A38"/>
</svg>
