<svg width="40" height="40" viewBox="0 0 40 40" fill="none" xmlns="http://www.w3.org/2000/svg">
<circle cx="20" cy="20" r="20" fill="#E2E8F0"/>
<path d="M11.6903 28V16.3636H15.6222C16.5313 16.3636 17.2775 16.5189 17.8608 16.8295C18.4441 17.1364 18.8759 17.5587 19.1562 18.0966C19.4366 18.6345 19.5767 19.2462 19.5767 19.9318C19.5767 20.6174 19.4366 21.2254 19.1562 21.7557C18.8759 22.286 18.446 22.7027 17.8665 23.0057C17.2869 23.3049 16.5464 23.4545 15.6449 23.4545H12.4631V22.1818H15.5994C16.2206 22.1818 16.7206 22.0909 17.0994 21.9091C17.482 21.7273 17.7585 21.4697 17.929 21.1364C18.1032 20.7992 18.1903 20.3977 18.1903 19.9318C18.1903 19.4659 18.1032 19.0587 17.929 18.7102C17.7547 18.3617 17.4763 18.0928 17.0938 17.9034C16.7112 17.7102 16.2055 17.6136 15.5767 17.6136H13.0994V28H11.6903ZM17.1676 22.7727L20.0312 28H18.3949L15.5767 22.7727H17.1676ZM28.2884 19.2727C28.2202 18.697 27.9437 18.25 27.4588 17.9318C26.974 17.6136 26.3793 17.4545 25.6747 17.4545C25.1596 17.4545 24.7088 17.5379 24.3224 17.7045C23.9399 17.8712 23.6406 18.1004 23.4247 18.392C23.2126 18.6837 23.1065 19.0152 23.1065 19.3864C23.1065 19.697 23.1804 19.964 23.3281 20.1875C23.4796 20.4072 23.6728 20.5909 23.9077 20.7386C24.1425 20.8826 24.3887 21.0019 24.6463 21.0966C24.9039 21.1875 25.1406 21.2614 25.3565 21.3182L26.5384 21.6364C26.8414 21.7159 27.1785 21.8258 27.5497 21.9659C27.9247 22.1061 28.2827 22.2973 28.6236 22.5398C28.9683 22.7784 29.2524 23.0852 29.4759 23.4602C29.6993 23.8352 29.8111 24.2955 29.8111 24.8409C29.8111 25.4697 29.6463 26.0379 29.3168 26.5455C28.991 27.053 28.5137 27.4564 27.8849 27.7557C27.2599 28.0549 26.5005 28.2045 25.6065 28.2045C24.7732 28.2045 24.0516 28.0701 23.4418 27.8011C22.8357 27.5322 22.3584 27.1572 22.0099 26.6761C21.6652 26.1951 21.4702 25.6364 21.4247 25H22.8793C22.9171 25.4394 23.0649 25.803 23.3224 26.0909C23.5838 26.375 23.9134 26.5871 24.3111 26.7273C24.7126 26.8636 25.1444 26.9318 25.6065 26.9318C26.1444 26.9318 26.6274 26.8447 27.0554 26.6705C27.4834 26.4924 27.8224 26.2462 28.0724 25.9318C28.3224 25.6136 28.4474 25.2424 28.4474 24.8182C28.4474 24.4318 28.3395 24.1174 28.1236 23.875C27.9077 23.6326 27.6236 23.4356 27.2713 23.2841C26.919 23.1326 26.5384 23 26.1293 22.8864L24.6974 22.4773C23.7884 22.2159 23.0687 21.8428 22.5384 21.358C22.008 20.8731 21.7429 20.2386 21.7429 19.4545C21.7429 18.803 21.919 18.2348 22.2713 17.75C22.6274 17.2614 23.1046 16.8826 23.7031 16.6136C24.3054 16.3409 24.9777 16.2045 25.7202 16.2045C26.4702 16.2045 27.1368 16.339 27.7202 16.608C28.3035 16.8731 28.7656 17.2367 29.1065 17.6989C29.4512 18.161 29.633 18.6856 29.652 19.2727H28.2884Z" fill="#0F172A"/>
</svg>
