<svg width="23" height="22" viewBox="0 0 23 22" fill="none" xmlns="http://www.w3.org/2000/svg">
<path d="M7.67923 1.16876H3.21338C2.0178 1.16876 1.0332 2.13126 1.0332 3.30001V7.66564C1.0332 8.83439 2.0178 9.79689 3.21338 9.79689H7.67923C8.87481 9.79689 9.8594 8.83439 9.8594 7.66564V3.33439C9.89457 2.13126 8.90997 1.16876 7.67923 1.16876ZM8.31218 7.70001C8.31218 8.04376 8.03087 8.31876 7.67923 8.31876H3.21338C2.86174 8.31876 2.58043 8.04376 2.58043 7.70001V3.33439C2.58043 2.99064 2.86174 2.71564 3.21338 2.71564H7.67923C8.03087 2.71564 8.31218 2.99064 8.31218 3.33439V7.70001Z" fill="white"/>
<path d="M19.3887 1.16876H14.9229C13.7273 1.16876 12.7427 2.13126 12.7427 3.30001V7.66564C12.7427 8.83439 13.7273 9.79689 14.9229 9.79689H19.3887C20.5843 9.79689 21.5689 8.83439 21.5689 7.66564V3.33439C21.5689 2.13126 20.5843 1.16876 19.3887 1.16876ZM20.0217 7.70001C20.0217 8.04376 19.7403 8.31876 19.3887 8.31876H14.9229C14.5712 8.31876 14.2899 8.04376 14.2899 7.70001V3.33439C14.2899 2.99064 14.5712 2.71564 14.9229 2.71564H19.3887C19.7403 2.71564 20.0217 2.99064 20.0217 3.33439V7.70001Z" fill="white"/>
<path d="M7.67923 12.1344H3.21338C2.0178 12.1344 1.0332 13.0969 1.0332 14.2656V18.6313C1.0332 19.8 2.0178 20.7625 3.21338 20.7625H7.67923C8.87481 20.7625 9.8594 19.8 9.8594 18.6313V14.3C9.89457 13.0969 8.90997 12.1344 7.67923 12.1344ZM8.31218 18.6656C8.31218 19.0094 8.03087 19.2844 7.67923 19.2844H3.21338C2.86174 19.2844 2.58043 19.0094 2.58043 18.6656V14.3C2.58043 13.9563 2.86174 13.6813 3.21338 13.6813H7.67923C8.03087 13.6813 8.31218 13.9563 8.31218 14.3V18.6656Z" fill="white"/>
<path d="M19.3887 12.1344H14.9229C13.7273 12.1344 12.7427 13.0969 12.7427 14.2656V18.6313C12.7427 19.8 13.7273 20.7625 14.9229 20.7625H19.3887C20.5843 20.7625 21.5689 19.8 21.5689 18.6313V14.3C21.5689 13.0969 20.5843 12.1344 19.3887 12.1344ZM20.0217 18.6656C20.0217 19.0094 19.7403 19.2844 19.3887 19.2844H14.9229C14.5712 19.2844 14.2899 19.0094 14.2899 18.6656V14.3C14.2899 13.9563 14.5712 13.6813 14.9229 13.6813H19.3887C19.7403 13.6813 20.0217 13.9563 20.0217 14.3V18.6656Z" fill="white"/>
</svg>
