<svg width="23" height="22" viewBox="0 0 23 22" fill="none" xmlns="http://www.w3.org/2000/svg">
<g clip-path="url(#clip0_11_531)">
<path d="M6.11102 4.98439H21.7591C22.181 4.98439 22.5678 4.64064 22.5678 4.19376C22.5678 3.74689 22.2162 3.40314 21.7591 3.40314H6.11102C5.68905 3.40314 5.30225 3.74689 5.30225 4.19376C5.30225 4.64064 5.65389 4.98439 6.11102 4.98439Z" fill="#111928"/>
<path d="M21.7239 10.2437H6.11102C5.68905 10.2437 5.30225 10.5875 5.30225 11.0344C5.30225 11.4469 5.65389 11.825 6.11102 11.825H21.7591C22.181 11.825 22.5678 11.4812 22.5678 11.0344C22.5327 10.5875 22.181 10.2437 21.7239 10.2437Z" fill="#111928"/>
<path d="M21.7239 17.0156H6.11102C5.68905 17.0156 5.30225 17.3594 5.30225 17.8062C5.30225 18.2531 5.65389 18.5969 6.11102 18.5969H21.7591C22.181 18.5969 22.5678 18.2531 22.5678 17.8062C22.5678 17.3594 22.181 17.0156 21.7239 17.0156Z" fill="#111928"/>
<path d="M2.62961 5.12187C3.15396 5.12187 3.57904 4.70634 3.57904 4.19375C3.57904 3.68116 3.15396 3.26562 2.62961 3.26562C2.10525 3.26562 1.68018 3.68116 1.68018 4.19375C1.68018 4.70634 2.10525 5.12187 2.62961 5.12187Z" fill="#111928"/>
<path d="M2.62961 11.9281C3.15396 11.9281 3.57904 11.5126 3.57904 11C3.57904 10.4874 3.15396 10.0719 2.62961 10.0719C2.10525 10.0719 1.68018 10.4874 1.68018 11C1.68018 11.5126 2.10525 11.9281 2.62961 11.9281Z" fill="#111928"/>
<path d="M2.62961 18.7344C3.15396 18.7344 3.57904 18.3188 3.57904 17.8062C3.57904 17.2936 3.15396 16.8781 2.62961 16.8781C2.10525 16.8781 1.68018 17.2936 1.68018 17.8062C1.68018 18.3188 2.10525 18.7344 2.62961 18.7344Z" fill="#111928"/>
</g>
<defs>
<clipPath id="clip0_11_531">
<rect width="22.5051" height="22" fill="white" transform="translate(0.449219)"/>
</clipPath>
</defs>
</svg>
